<?xml version="1.0" standalone="no"?>
<!DOCTYPE svg PUBLIC "-//W3C//DTD SVG 20010904//EN"
 "http://www.w3.org/TR/2001/REC-SVG-20010904/DTD/svg10.dtd">
<svg version="1.0" xmlns="http://www.w3.org/2000/svg"
 width="920.000000pt" height="573.000000pt" viewBox="0 0 920.000000 573.000000"
 preserveAspectRatio="xMidYMid meet">

<g transform="translate(0.000000,573.000000) scale(0.100000,-0.100000)"
fill="#000000" stroke="none">
<path d="M4580 5609 c-36 -4 -68 -5 -72 -3 -4 3 -9 1 -12 -4 -3 -5 20 -9 51
-10 58 -1 90 -15 54 -25 -12 -3 -19 -2 -16 2 8 14 -32 5 -60 -13 -18 -12 -25
-13 -20 -5 6 11 5 11 -5 2 -7 -6 -19 -9 -28 -6 -10 4 -13 2 -8 -5 5 -8 2 -10
-8 -6 -11 4 -16 0 -17 -12 0 -11 -3 -14 -5 -7 -4 8 -13 9 -29 3 -12 -5 -27 -6
-31 -2 -5 4 -3 0 4 -9 11 -14 9 -16 -14 -11 -18 3 -25 1 -20 -6 3 -6 1 -14 -5
-18 -8 -4 -9 -3 -5 4 4 7 1 12 -8 12 -8 0 -19 -6 -23 -14 -4 -8 -11 -15 -15
-15 -5 -1 -10 -2 -13 -2 -3 -1 -11 -2 -17 -3 -7 0 -17 -11 -23 -24 -12 -27
-44 -39 -57 -21 -8 11 -9 11 -5 -1 2 -8 -5 -24 -16 -35 -17 -17 -19 -17 -14
-3 5 15 3 16 -12 6 -10 -6 -22 -21 -28 -32 -5 -12 -8 -15 -6 -8 1 6 -2 12 -7
12 -6 0 -10 -5 -10 -11 0 -6 -6 -9 -14 -6 -16 6 -29 -18 -20 -36 3 -7 -2 -3
-10 7 -15 19 -21 13 -17 -19 1 -5 -6 -1 -14 9 -8 11 -16 15 -16 8 -1 -7 -3
-16 -4 -22 -1 -5 -3 -13 -4 -17 -1 -5 -6 -1 -11 7 -7 11 -10 11 -10 2 0 -7 -5
-10 -10 -7 -6 4 -10 3 -9 -2 1 -4 1 -15 0 -23 -1 -13 -3 -13 -10 -1 -8 12 -12
12 -25 2 -9 -8 -16 -18 -16 -24 0 -6 7 -2 16 9 15 18 15 18 4 -3 -10 -21 -40
-23 -40 -2 0 5 -8 9 -17 8 -10 0 -13 -3 -6 -6 10 -3 10 -7 0 -18 -7 -7 -16
-10 -22 -7 -5 3 -4 -2 4 -12 11 -13 11 -16 1 -14 -7 2 -15 -3 -17 -9 -3 -7 3
-13 13 -13 13 0 11 -4 -9 -20 -14 -11 -29 -20 -35 -20 -5 0 -23 -13 -40 -30
-17 -16 -55 -36 -87 -45 -116 -34 -304 -190 -374 -311 l-40 -69 22 -23 c29
-32 196 -111 327 -157 221 -76 456 -126 770 -164 259 -31 436 -41 752 -41 760
0 1424 104 1883 294 92 39 220 110 233 130 11 17 10 66 -1 66 -6 0 -8 3 -4 6
8 8 -34 54 -50 54 -8 0 -11 5 -8 10 6 9 -8 14 -28 11 -4 0 -6 4 -5 10 2 6 -6
16 -17 22 -11 7 -26 20 -33 30 -7 9 -20 17 -28 17 -8 0 -14 4 -14 8 0 9 -59
36 -78 35 -7 -1 -11 2 -8 5 9 9 -114 63 -126 56 -7 -4 -8 -2 -4 4 7 11 -7 16
-41 15 -7 -1 -11 3 -8 7 3 4 -2 11 -11 14 -10 4 -13 2 -8 -7 4 -6 -2 -4 -13 6
-11 9 -26 17 -34 17 -8 0 -21 6 -28 13 -11 10 -12 9 -6 -3 5 -9 -1 -7 -15 5
-13 11 -20 14 -15 6 5 -9 -1 -7 -19 4 -14 10 -26 14 -26 10 0 -4 -6 -3 -12 2
-7 6 -23 9 -35 8 -12 -1 -20 2 -18 6 3 4 -4 9 -15 12 -13 3 -18 1 -13 -6 4 -7
0 -6 -10 1 -9 8 -22 10 -28 6 -8 -5 -9 -3 -4 6 6 10 4 12 -8 7 -10 -3 -17 -2
-17 2 0 5 -8 8 -17 6 -10 -1 -24 3 -32 9 -10 7 -13 7 -8 0 3 -6 0 -11 -8 -11
-8 0 -12 4 -9 9 5 7 -14 11 -58 11 -10 0 -18 4 -18 10 0 5 -8 3 -17 -4 -9 -8
-14 -9 -10 -3 4 7 -2 14 -13 17 -13 3 -18 1 -13 -6 4 -7 -1 -6 -10 2 -9 7 -17
10 -17 7 0 -4 -10 -2 -21 5 -17 9 -20 8 -14 -2 6 -9 4 -10 -6 -3 -8 5 -27 10
-44 11 -16 0 -31 2 -32 3 -2 2 -6 3 -10 4 -5 1 -13 5 -20 9 -6 4 -15 3 -18 -3
-5 -8 -11 -7 -21 1 -8 6 -14 9 -14 5 0 -3 -11 -1 -25 4 -18 7 -25 6 -25 -3 0
-8 -4 -7 -10 3 -5 8 -10 12 -10 8 0 -4 -11 -3 -25 2 -16 6 -26 6 -31 -1 -4 -7
-10 -7 -18 0 -7 6 -15 8 -18 6 -3 -3 -17 -1 -32 5 -20 7 -25 7 -20 -1 4 -8 1
-8 -12 -2 -11 5 -26 9 -34 8 -8 -1 -21 3 -27 8 -9 6 -13 5 -13 -3 0 -10 -3
-10 -14 -1 -10 9 -16 9 -21 1 -5 -8 -11 -8 -19 -1 -9 7 -17 7 -26 -2 -9 -8
-11 -8 -6 0 4 8 -7 11 -39 10 -24 0 -48 2 -51 6 -12 12 -26 8 -18 -5 6 -10 4
-10 -7 0 -7 6 -17 12 -22 12 -4 0 -5 -6 -2 -12 4 -7 1 -6 -7 2 -7 8 -31 16
-53 17 -51 1 -111 11 -200 30 -38 8 -78 16 -87 16 -9 1 -15 4 -13 7 1 3 -3 11
-11 18 -8 7 -14 10 -14 6 0 -3 -14 9 -32 27 -17 19 -35 33 -40 32 -4 -2 -8 4
-8 12 0 8 -7 15 -15 15 -8 0 -15 4 -15 9 0 5 -8 12 -17 14 -16 4 -16 5 -1 6 9
0 20 -3 23 -9 3 -5 11 -10 18 -10 6 0 0 8 -13 17 -14 10 -29 17 -34 15 -5 -2
-6 7 -3 18 4 16 2 20 -8 16 -9 -3 -12 1 -10 13 3 15 -1 18 -18 14 -18 -4 -19
-3 -7 6 8 6 10 11 4 11 -6 0 -14 -3 -18 -7 -4 -5 -22 -8 -39 -9 -18 0 -42 -4
-54 -8 -14 -5 -23 -3 -23 3 0 6 -5 11 -11 11 -5 0 -7 -6 -3 -12 5 -8 1 -8 -10
1 -15 13 -19 13 -27 0 -7 -11 -9 -10 -9 6 0 17 -2 17 -10 5 -9 -13 -10 -13
-10 0 0 13 -1 13 -10 0 -8 -12 -10 -12 -10 -1 0 11 -3 11 -17 0 -14 -12 -15
-12 -9 0 7 10 4 12 -12 7 -12 -4 -22 -2 -25 6 -3 9 8 13 40 14 24 1 49 6 54
11 11 11 -40 11 -141 2z m715 -699 c-28 -12 -57 -12 -50 0 3 6 21 10 38 9 27
0 29 -2 12 -9z m104 -6 c2 -2 -12 -4 -32 -4 -20 0 -37 4 -37 10 0 8 58 3 69
-6z m-121 -24 c6 0 12 -5 12 -11 0 -6 -6 -9 -14 -6 -8 3 -31 1 -51 -4 -26 -8
-41 -7 -48 0 -16 16 -42 14 -57 -4 -18 -22 -32 -18 -20 5 9 16 20 20 51 18 21
-1 39 -6 39 -11 0 -4 7 -1 16 8 10 10 25 14 38 11 12 -3 27 -6 34 -6z m175 3
c-7 -2 -19 -2 -25 0 -7 3 -2 5 12 5 14 0 19 -2 13 -5z m67 -3 c0 -5 -4 -10
-10 -10 -5 0 -10 5 -10 10 0 6 5 10 10 10 6 0 10 -4 10 -10z m-130 -10 c0 -5
-7 -7 -15 -4 -8 4 -15 8 -15 10 0 2 7 4 15 4 8 0 15 -4 15 -10z m25 0 c3 -5 1
-10 -4 -10 -6 0 -11 5 -11 10 0 6 2 10 4 10 3 0 8 -4 11 -10z m182 4 c-3 -3
-12 -4 -19 -1 -8 3 -5 6 6 6 11 1 17 -2 13 -5z m-257 -8 c0 -3 -4 -8 -10 -11
-5 -3 -10 -1 -10 4 0 6 5 11 10 11 6 0 10 -2 10 -4z m-340 -10 c0 -3 -4 -8
-10 -11 -5 -3 -10 -1 -10 4 0 6 5 11 10 11 6 0 10 -2 10 -4z m471 -9 c-6 -8
-7 -18 -3 -22 4 -5 2 -5 -5 -1 -14 8 -6 36 9 36 7 0 6 -5 -1 -13z m131 -1 c9
0 15 -3 13 -7 -6 -9 -115 -8 -115 2 0 11 32 18 60 12 14 -4 33 -6 42 -7z
m-242 -20 c0 -16 -37 -28 -46 -15 -4 7 19 22 44 28 1 1 2 -5 2 -13z m50 -1
c-7 -9 -15 -13 -19 -10 -3 3 1 10 9 15 21 14 24 12 10 -5z m-384 -14 c0 -11
-4 -17 -8 -15 -4 3 -8 12 -8 20 0 8 4 14 8 14 4 0 8 -9 8 -19z m71 13 c-3 -3
-12 -4 -19 -1 -8 3 -5 6 6 6 11 1 17 -2 13 -5z m563 -14 c11 -11 20 -21 20
-22 0 -8 -70 -6 -74 1 -7 11 -46 2 -46 -10 0 -5 -7 -6 -15 -3 -12 5 -13 10 -5
19 7 9 27 12 55 9 37 -3 43 -1 39 11 -8 21 2 19 26 -5z m50 4 c0 -2 -7 -4 -15
-4 -8 0 -15 4 -15 10 0 5 7 7 15 4 8 -4 15 -8 15 -10z m-410 -9 c0 -9 -9 -15
-22 -14 -17 1 -19 2 -5 6 9 2 17 9 17 14 0 5 2 9 5 9 3 0 5 -7 5 -15z m110
-17 c-14 -11 -24 -28 -22 -37 2 -12 0 -12 -9 3 -10 16 -8 22 12 37 33 26 50
23 19 -3z m98 13 c10 -6 6 -10 -14 -14 -17 -3 -33 1 -41 9 -12 12 -10 14 14
14 15 0 34 -4 41 -9z m-533 -11 c-3 -5 -11 -10 -16 -10 -6 0 -7 5 -4 10 3 6
11 10 16 10 6 0 7 -4 4 -10z m258 -10 c-3 -11 -9 -20 -13 -20 -5 0 -6 9 -3 20
3 11 9 20 13 20 5 0 6 -9 3 -20z m557 0 c8 -5 11 -10 5 -10 -5 0 -17 5 -25 10
-8 5 -10 10 -5 10 6 0 17 -5 25 -10z m-455 -10 c4 -6 -5 -10 -19 -10 -14 0
-26 -4 -26 -9 0 -14 -29 -21 -36 -9 -4 6 -3 8 4 4 6 -3 14 0 19 7 7 13 27 24
45 26 4 1 10 -3 13 -9z m-305 -10 c-19 -13 -30 -13 -30 0 0 6 10 10 23 10 18
0 19 -2 7 -10z m130 6 c0 -3 -4 -8 -10 -11 -5 -3 -10 -1 -10 4 0 6 5 11 10 11
6 0 10 -2 10 -4z m487 -25 c23 -13 17 -14 -26 -1 -19 5 -41 6 -50 1 -9 -5 -25
-5 -36 0 -21 8 -21 8 8 14 11 2 21 6 24 8 6 6 55 -7 80 -22z m98 -1 c-36 -8
-46 -4 -39 15 5 11 12 11 37 2 l32 -11 -30 -6z m-624 3 c-5 -10 -13 -29 -19
-43 l-10 -25 2 27 c1 15 8 34 16 42 17 21 22 20 11 -1z m348 13 c-15 -13 -49
-25 -49 -17 0 5 8 12 18 14 24 6 36 8 31 3z m332 -29 c-10 -9 -11 -8 -5 6 3
10 9 15 12 12 3 -3 0 -11 -7 -18z m74 13 c-11 -5 -27 -9 -35 -9 -13 -1 -13 0
0 9 8 5 24 9 35 9 l20 0 -20 -9z m-540 -10 c-3 -5 -14 -10 -23 -9 -14 0 -13 2
3 9 27 11 27 11 20 0z m135 -5 c-6 -8 -9 -19 -5 -24 3 -7 0 -8 -9 -5 -12 5
-13 11 -5 25 5 10 15 19 21 19 7 0 6 -5 -2 -15z m-193 -28 c-13 -30 -30 -38
-20 -9 7 18 26 42 30 38 2 -1 -3 -14 -10 -29z m118 23 c-3 -5 -11 -10 -16 -10
-6 0 -7 5 -4 10 3 6 11 10 16 10 6 0 7 -4 4 -10z m289 -14 c-10 -8 -21 -12
-24 -10 -5 6 21 24 34 24 6 0 1 -6 -10 -14z m-284 -16 c-20 -13 -43 -13 -35 0
3 6 16 10 28 10 18 0 19 -2 7 -10z m313 -2 c-13 -6 -23 -15 -23 -20 0 -4 -5
-8 -12 -8 -6 0 -3 9 7 20 10 11 25 20 34 19 11 0 9 -4 -6 -11z m-253 -19 c0
-6 -4 -7 -10 -4 -5 3 -10 11 -10 16 0 6 5 7 10 4 6 -3 10 -11 10 -16z m-320
-4 c-7 -8 -17 -15 -22 -15 -6 0 -5 7 2 15 7 8 17 15 22 15 6 0 5 -7 -2 -15z
m70 0 c-7 -9 -15 -13 -17 -11 -7 7 7 26 19 26 6 0 6 -6 -2 -15z m114 -9 c-3
-9 -10 -16 -15 -16 -6 0 -5 9 1 21 13 24 24 20 14 -5z m186 -3 c0 -5 -14 -16
-30 -25 -17 -9 -30 -13 -30 -8 0 5 12 16 28 24 32 18 32 18 32 9z m104 -18
c-4 -8 -8 -15 -10 -15 -2 0 -4 7 -4 15 0 8 4 15 10 15 5 0 7 -7 4 -15z"/>
<path d="M5920 4201 c0 -7 -5 -9 -12 -5 -7 5 -8 3 -3 -5 5 -9 10 -10 18 -2 6
6 8 14 4 18 -4 3 -7 1 -7 -6z"/>
<path d="M5801 4191 c-7 -5 -24 -7 -39 -5 -15 1 -32 -4 -40 -14 -7 -9 -11 -12
-8 -6 4 8 -9 11 -38 10 -24 0 -43 -3 -41 -6 2 -3 -22 -7 -53 -9 -32 -2 -67 -4
-79 -5 -11 0 -19 -5 -16 -9 3 -4 -8 -6 -24 -4 -15 2 -48 -2 -72 -9 -24 -7 -47
-13 -50 -12 -3 0 -8 -1 -11 -2 -12 -4 -48 -9 -84 -12 -21 -1 -40 -8 -43 -16
-5 -11 -7 -11 -14 0 -7 11 -11 10 -19 -2 -8 -12 -10 -12 -10 -1 0 11 -3 11
-17 0 -15 -12 -16 -12 -8 1 8 13 7 13 -8 1 -9 -7 -17 -11 -17 -7 0 3 -9 -2
-19 -11 -11 -9 -18 -24 -16 -33 2 -13 -4 -16 -27 -15 -28 2 -29 1 -13 -11 10
-7 23 -11 28 -7 6 3 3 -4 -6 -17 -11 -16 -13 -29 -7 -46 5 -13 6 -24 1 -24
-10 0 -25 30 -22 43 1 5 -3 6 -9 2 -8 -5 -7 -11 1 -21 10 -12 8 -17 -6 -28
-14 -10 -15 -15 -5 -21 9 -5 11 -4 6 3 -4 7 -2 12 3 12 6 0 11 -4 11 -10 0 -5
5 -10 11 -10 5 0 7 6 3 13 -4 6 -4 9 1 5 4 -4 15 -2 23 5 13 10 14 9 7 -3 -12
-20 -14 -50 -3 -56 4 -3 8 -12 8 -20 0 -8 -4 -12 -10 -9 -5 3 -10 -1 -10 -10
0 -9 4 -14 9 -11 7 5 21 -14 25 -34 1 -3 5 -10 9 -17 4 -6 2 -15 -4 -19 -7 -4
-9 -3 -5 4 3 6 2 13 -3 16 -17 11 -21 -10 -6 -30 8 -10 14 -23 15 -29 0 -5 -5
-3 -11 5 -9 13 -10 13 -6 0 2 -8 12 -14 22 -13 13 1 14 -2 6 -10 -9 -9 -17 -8
-31 1 -16 10 -20 10 -18 0 2 -7 -3 -12 -11 -10 -12 3 -12 0 -2 -12 9 -11 18
-13 31 -6 13 7 22 4 36 -12 11 -12 13 -18 7 -14 -7 4 -13 4 -14 -1 0 -4 -2
-16 -4 -25 -2 -9 3 -22 11 -29 21 -17 17 -31 -6 -24 -15 5 -18 3 -14 -9 3 -9
10 -16 15 -16 5 0 9 -5 9 -11 0 -5 -5 -7 -11 -3 -7 4 -10 1 -7 -7 3 -8 11 -13
17 -11 7 1 10 -2 6 -8 -3 -5 -8 -18 -10 -27 -2 -10 -6 -27 -9 -38 -5 -16 -4
-15 5 3 15 28 29 29 22 1 -3 -11 -15 -25 -27 -30 -19 -8 -18 -9 6 -6 23 4 26
1 24 -22 -2 -14 3 -41 10 -58 7 -19 9 -33 3 -33 -5 0 -9 5 -9 10 0 6 -8 10
-17 10 -14 0 -12 -4 8 -18 14 -9 24 -23 21 -31 -3 -9 0 -11 8 -6 9 6 9 3 1
-13 -15 -28 -14 -37 3 -23 11 10 14 9 12 -3 -1 -9 -6 -19 -11 -23 -4 -4 -6 -3
-2 2 3 6 -3 11 -14 11 -19 0 -19 -1 -3 -13 10 -7 26 -11 36 -7 11 3 18 0 18
-7 0 -7 -3 -9 -6 -6 -4 3 -15 2 -26 -4 -11 -6 -17 -13 -14 -16 3 -4 1 -12 -5
-19 -7 -8 -7 -14 1 -19 6 -4 9 -1 8 7 -2 7 3 12 11 10 12 -3 12 0 1 12 -8 11
-9 16 -1 16 6 0 12 -4 12 -10 1 -5 2 -16 3 -22 1 -7 -8 -21 -19 -31 -11 -10
-15 -16 -8 -13 7 4 13 -3 15 -16 2 -12 9 -23 17 -26 9 -3 11 0 6 9 -5 8 0 6
12 -4 18 -16 29 -52 12 -41 -5 2 -6 -9 -4 -26 4 -31 -14 -39 -23 -10 -3 7 0
10 7 6 15 -10 13 4 -5 34 -8 14 -13 18 -10 9 2 -9 0 -21 -5 -26 -11 -11 17
-53 35 -53 8 0 17 12 20 26 4 15 9 24 12 22 2 -3 0 -17 -5 -32 -6 -14 -7 -26
-2 -26 5 0 11 -6 14 -13 3 -8 -1 -14 -9 -14 -7 0 -11 4 -8 8 2 4 0 10 -6 14
-10 6 -15 -15 -10 -44 1 -13 -1 -13 -17 -1 -14 12 -14 10 3 -10 22 -27 24 -37
10 -59 -6 -9 -5 -12 0 -8 6 3 16 2 24 -4 10 -6 11 -9 3 -9 -7 0 -13 -8 -13
-17 0 -12 3 -14 8 -7 5 9 11 8 20 -2 12 -13 8 -18 -11 -15 -5 1 -6 -3 -2 -9 4
-6 12 -6 25 2 17 11 17 13 2 26 -9 7 -11 11 -4 7 13 -7 17 10 5 18 -5 2 -3 2
4 1 6 -2 13 2 16 9 2 6 6 3 10 -7 4 -10 3 -15 -3 -11 -6 3 -10 -1 -10 -10 0
-9 5 -13 10 -10 17 11 11 0 -20 -35 -16 -18 -30 -38 -29 -44 0 -6 3 -5 6 2 4
10 8 10 19 1 10 -8 11 -16 3 -33 -11 -20 -10 -20 6 -5 13 13 15 21 6 37 -14
26 -14 42 0 42 5 0 8 -3 6 -7 -3 -5 2 -14 10 -22 13 -11 14 -9 10 17 -3 19 1
38 10 49 8 10 11 12 7 4 -4 -8 -8 -40 -9 -70 -1 -38 -5 -55 -13 -53 -17 3 14
-44 33 -52 9 -3 21 5 30 22 l15 27 -3 -25 c-1 -14 -7 -32 -12 -40 -7 -13 -6
-13 7 -2 12 10 17 10 27 -1 6 -8 7 -18 3 -22 -4 -5 -1 -5 6 -1 10 6 10 11 1
22 -9 11 -9 14 0 14 8 0 10 9 7 23 -3 12 -3 16 0 9 3 -6 9 -10 13 -8 4 3 7 -4
7 -14 0 -10 -5 -16 -10 -13 -5 4 -6 1 -1 -7 6 -10 10 -10 19 2 13 18 35 1 28
-22 -3 -13 -2 -13 7 0 9 13 11 13 11 -2 0 -9 4 -20 10 -23 6 -3 7 1 4 10 -4 8
-1 21 5 29 11 13 5 26 -10 26 -5 0 -5 -8 -2 -17 6 -16 5 -16 -10 -4 -26 21 -4
43 28 27 15 -7 20 -15 14 -20 -11 -12 -12 -26 -1 -26 15 0 30 58 18 71 -8 10
-7 10 6 0 10 -7 16 -17 13 -21 -3 -5 -1 -11 4 -14 5 -4 8 5 7 18 -2 14 2 27 9
30 8 3 11 -2 8 -15 -6 -20 20 -28 32 -9 4 7 14 6 28 -1 22 -12 22 -12 2 8 -17
16 -22 17 -33 6 -17 -17 -28 -17 -13 0 6 8 7 18 3 22 -4 5 -1 5 6 1 8 -5 12 0
13 16 1 20 2 21 6 3 6 -24 23 -44 23 -27 0 7 7 12 15 12 8 0 12 6 9 15 -4 10
0 13 15 10 14 -2 25 3 32 16 9 17 13 18 27 7 15 -12 16 -11 3 5 -14 17 -13 18
5 15 14 -2 19 3 18 20 0 15 4 21 12 18 12 -5 74 56 74 72 -1 4 -10 -4 -20 -17
-11 -13 -20 -17 -20 -10 0 10 -3 10 -12 1 -7 -7 -21 -12 -32 -12 -21 1 -21 1
1 19 12 10 19 22 15 26 -4 4 2 3 13 -3 18 -9 23 -6 33 18 11 24 11 34 -2 59
-10 19 -12 32 -6 36 6 4 9 3 8 -2 -2 -4 3 -23 11 -41 11 -26 11 -35 1 -47 -15
-18 -4 -20 13 -2 13 13 16 62 4 73 -4 4 -3 12 2 18 9 10 11 17 11 32 0 4 7 1
15 -6 15 -12 19 -4 18 37 0 7 4 11 9 10 6 -1 12 9 14 22 6 34 16 42 12 9 -2
-15 -7 -30 -11 -34 -17 -17 -5 -25 13 -9 12 10 19 24 16 31 -3 7 2 15 10 18
17 6 17 2 3 -27 -9 -19 -8 -20 3 -5 13 15 15 15 26 0 9 -13 11 -14 9 -2 -1 8
-8 21 -14 28 -16 16 -17 42 -2 42 5 0 7 -6 4 -12 -4 -7 0 -5 9 6 8 10 20 15
26 11 7 -4 2 -14 -12 -26 -13 -12 -17 -18 -10 -14 11 6 17 -7 13 -28 -1 -5 3
-6 9 -2 6 4 7 12 1 23 -6 11 -4 20 7 28 16 12 15 14 -2 27 -19 14 -19 15 2 26
19 10 22 18 18 49 -3 20 -5 47 -5 60 -1 13 -5 21 -9 18 -5 -3 -9 1 -9 9 0 8 4
12 9 9 4 -3 6 1 3 8 -13 41 -18 104 -20 293 -1 116 1 219 5 230 4 11 4 29 -1
40 -8 22 -11 15 -11 -27 -1 -15 -4 -26 -8 -23 -3 2 -5 20 -4 40 2 20 -1 33 -5
30 -5 -2 -15 3 -22 13 -13 16 -13 16 5 2 18 -14 19 -13 13 5 -7 19 -6 19 7 3
16 -22 33 -23 33 -3 0 8 -6 15 -13 15 -7 0 -16 4 -19 10 -4 6 1 7 11 3 12 -4
15 -3 10 5 -4 7 -2 12 5 12 21 0 -3 18 -31 23 -25 4 -25 4 2 6 34 1 41 12 28
46 -5 14 -6 24 -1 21 5 -3 8 5 7 19 0 14 -5 24 -11 22 -11 -4 -35 17 -35 29 0
5 5 3 12 -4 7 -7 19 -12 28 -11 10 0 11 2 3 6 -7 2 -13 12 -13 21 0 15 2 15
10 2 8 -12 9 -9 7 10 -3 17 -11 26 -27 28 -13 2 -20 0 -16 -7 4 -5 14 -8 24
-5 14 5 14 4 2 -4 -10 -8 -18 -8 -27 -1 -14 12 -6 42 10 32 6 -4 7 -1 2 6 -5
9 -10 10 -18 2 -14 -14 -30 -14 -22 -1 4 6 -1 7 -11 3 -11 -4 -13 -8 -6 -11 7
-2 17 -13 24 -25 9 -17 5 -15 -20 7 -34 33 -54 39 -88 26 -15 -6 -26 -5 -30 2
-4 7 -3 8 4 4 17 -10 15 3 -2 20 -11 10 -15 11 -19 1 -3 -9 -7 -9 -18 0 -8 7
-20 8 -28 4z m142 -48 c-3 -7 -6 -13 -8 -13 -2 0 -5 6 -8 13 -3 8 1 14 8 14 7
0 11 -6 8 -14z m97 -127 c0 -3 -4 -8 -10 -11 -5 -3 -10 -1 -10 4 0 6 5 11 10
11 6 0 10 -2 10 -4z m-29 -49 c-10 -9 -11 -8 -5 6 3 10 9 15 12 12 3 -3 0 -11
-7 -18z m43 15 c3 -5 -1 -9 -9 -9 -8 0 -12 4 -9 9 3 4 7 8 9 8 2 0 6 -4 9 -8z
m-44 -86 c0 -2 -7 -7 -16 -10 -8 -3 -12 -2 -9 4 6 10 25 14 25 6z m14 -72 c3
-8 2 -12 -4 -9 -6 3 -10 10 -10 16 0 14 7 11 14 -7z m13 -109 c0 -8 -4 -12 -9
-9 -5 3 -6 10 -3 15 9 13 12 11 12 -6z m38 -523 c-3 -3 -11 0 -18 7 -9 10 -8
11 6 5 10 -3 15 -9 12 -12z m4 -47 c0 -14 -2 -16 -6 -5 -3 8 -13 24 -22 34
-15 18 -15 18 7 5 12 -8 22 -23 21 -34z m-49 5 c0 -5 -10 -15 -22 -21 l-23
-12 20 21 c23 24 25 25 25 12z m18 -33 c-14 -28 -28 -36 -28 -14 0 8 -4 7 -11
-3 -7 -10 -9 -11 -7 -2 2 8 6 12 9 10 13 -7 40 26 34 41 -4 11 -3 13 4 5 8 -7
7 -18 -1 -37z m-108 -7 c-6 -11 -13 -20 -16 -20 -2 0 0 9 6 20 6 11 13 20 16
20 2 0 0 -9 -6 -20z m50 -9 c0 -6 -4 -12 -8 -15 -5 -3 -9 1 -9 9 0 8 4 15 9
15 4 0 8 -4 8 -9z m-30 -15 c0 -2 -7 -17 -15 -32 -9 -18 -15 -23 -15 -12 0 9
5 20 10 23 6 4 8 11 5 16 -4 5 -1 9 4 9 6 0 11 -2 11 -4z m-770 -21 c0 -8 -2
-15 -4 -15 -2 0 -6 7 -10 15 -3 8 -1 15 4 15 6 0 10 -7 10 -15z m807 0 c0 -8
-4 -15 -9 -15 -10 0 -11 14 -1 23 9 10 10 9 10 -8z m-757 -210 c0 -8 -4 -15
-10 -15 -5 0 -7 7 -4 15 4 8 8 15 10 15 2 0 4 -7 4 -15z m610 1 c0 -2 -7 -7
-16 -10 -8 -3 -12 -2 -9 4 6 10 25 14 25 6z m-595 -47 c-4 -5 -1 -9 4 -9 6 0
11 4 11 9 0 5 8 12 17 15 15 6 15 5 -1 -13 -30 -33 -57 -23 -47 17 1 2 6 0 11
-3 6 -4 8 -11 5 -16z m501 -37 c-8 -16 -12 -32 -9 -36 9 -8 34 14 27 25 -3 5
-1 9 4 9 5 0 9 -13 10 -29 0 -23 -3 -28 -17 -24 -11 3 -22 -5 -31 -22 l-14
-27 -7 27 c-6 19 -1 35 17 62 13 20 24 40 24 46 0 6 3 8 6 5 3 -4 -1 -19 -10
-36z m84 4 c0 -2 -8 -10 -17 -17 -16 -13 -17 -12 -4 4 13 16 21 21 21 13z
m-480 -70 c-6 -6 -10 -18 -10 -27 0 -10 -4 -20 -9 -23 -4 -3 -3 15 2 40 7 28
13 40 18 32 5 -7 4 -17 -1 -22z m349 -19 c0 -9 -2 -8 -6 1 -2 6 -10 9 -15 6
-7 -4 -8 -2 -4 5 9 13 26 5 25 -12z m-336 -7 c-3 -12 -8 -19 -11 -16 -5 6 5
36 12 36 2 0 2 -9 -1 -20z m-24 -52 c-11 -21 -11 -22 4 -10 13 11 15 10 12 -5
-2 -10 -4 -21 -4 -25 -1 -5 -9 0 -19 10 -17 15 -17 19 -4 35 21 24 25 21 11
-5z m58 -4 c2 -16 1 -16 -3 -1 -3 9 -9 15 -14 12 -5 -3 -11 -1 -14 4 -4 5 2 8
11 7 10 -2 19 -11 20 -22z m138 -33 c-6 -5 -25 10 -25 20 0 5 6 4 14 -3 8 -7
12 -15 11 -17z m-135 -1 c0 -5 -5 -10 -11 -10 -5 0 -7 5 -4 10 3 6 8 10 11 10
2 0 4 -4 4 -10z"/>
<path d="M5725 2729 c-4 -6 -3 -15 3 -21 6 -6 11 -4 15 6 7 18 -9 31 -18 15z"/>
<path d="M5050 4050 c0 -5 5 -10 11 -10 5 0 7 5 4 10 -3 6 -8 10 -11 10 -2 0
-4 -4 -4 -10z"/>
<path d="M5006 3983 c-6 -14 -5 -15 5 -6 7 7 10 15 7 18 -3 3 -9 -2 -12 -12z"/>
<path d="M6688 3905 c-3 -3 -39 -14 -80 -24 -60 -14 -76 -15 -86 -5 -7 8 -19
11 -27 8 -9 -4 -15 0 -15 7 0 11 -3 11 -10 -1 -7 -11 -10 -11 -10 -2 0 9 -5
10 -19 3 -10 -6 -21 -7 -25 -4 -11 11 -36 12 -36 1 0 -5 -9 -6 -21 -3 -15 5
-19 4 -15 -4 6 -10 -6 -15 -26 -12 -5 0 -8 -3 -8 -9 0 -5 -5 -9 -12 -7 -6 1
-17 -8 -23 -20 -7 -13 -15 -20 -20 -15 -4 4 -6 0 -3 -8 2 -8 -8 -26 -23 -41
-15 -14 -30 -40 -34 -58 -4 -18 -11 -28 -17 -25 -7 4 -8 2 -4 -4 4 -7 1 -12
-6 -12 -11 0 -10 -2 0 -9 11 -7 11 -9 -2 -14 -10 -4 -13 -13 -9 -23 5 -14 8
-13 24 7 18 24 18 24 12 2 -3 -13 -9 -23 -14 -23 -12 0 -11 -37 1 -45 6 -4 7
-11 4 -17 -5 -7 -12 -4 -21 7 -7 11 -13 14 -13 9 0 -6 9 -20 19 -31 11 -12 17
-24 13 -27 -10 -11 -13 -48 -3 -42 5 4 16 -7 24 -24 14 -27 14 -32 -6 -57
l-21 -28 27 24 c21 19 27 21 27 9 0 -9 7 -21 15 -28 8 -7 12 -17 8 -23 -3 -5
-2 -7 4 -4 5 3 22 -6 37 -20 26 -24 102 -51 91 -33 -3 5 -1 11 5 15 6 4 8 12
5 18 -3 7 2 2 11 -10 17 -24 34 -30 34 -12 0 5 -4 7 -10 4 -5 -3 -10 -2 -10 3
0 16 13 22 26 11 17 -14 -6 65 -26 89 -18 21 -74 105 -75 112 -1 3 -4 26 -9
52 -9 60 9 123 43 148 15 10 73 32 131 50 194 59 230 72 224 81 -3 5 0 9 7 9
7 0 5 8 -7 22 -13 14 -14 19 -4 14 8 -4 6 0 -4 8 -21 17 -29 19 -38 11z"/>
<path d="M5042 3881 c-11 -6 -10 -11 3 -25 9 -9 19 -16 23 -16 3 0 1 5 -5 11
-6 6 -9 18 -6 25 6 16 3 17 -15 5z"/>
<path d="M5031 3824 c6 -7 8 -18 4 -24 -4 -7 2 -14 14 -17 12 -3 21 -10 21
-15 0 -5 5 -6 10 -3 15 9 2 25 -19 25 -13 0 -18 7 -16 23 2 15 -2 24 -11 24
-10 0 -11 -4 -3 -13z"/>
<path d="M5020 3759 c0 -5 5 -7 10 -4 6 3 10 8 10 11 0 2 -4 4 -10 4 -5 0 -10
-5 -10 -11z"/>
<path d="M5051 3754 c0 -11 3 -14 6 -6 3 7 2 16 -1 19 -3 4 -6 -2 -5 -13z"/>
<path d="M5041 3717 c-9 -12 -7 -14 9 -13 11 0 21 5 21 11 1 16 -17 17 -30 2z"/>
<path d="M5089 3648 c-1 -2 -3 -13 -4 -24 -1 -12 -5 -34 -9 -50 -5 -20 -4 -25
3 -15 8 13 12 13 28 1 17 -14 17 -14 1 5 -19 23 -20 33 -7 57 6 10 5 19 -1 23
-5 3 -11 5 -11 3z"/>
<path d="M6131 3624 c0 -11 3 -14 6 -6 3 7 2 16 -1 19 -3 4 -6 -2 -5 -13z"/>
<path d="M6140 3590 c-13 -8 -12 -10 3 -10 9 0 17 5 17 10 0 12 -1 12 -20 0z"/>
<path d="M6150 3520 c6 -11 13 -20 16 -20 2 0 0 9 -6 20 -6 11 -13 20 -16 20
-2 0 0 -9 6 -20z"/>
<path d="M63 3511 c-44 -7 -61 -17 -51 -27 4 -3 64 -21 135 -39 305 -79 885
-346 1382 -637 46 -27 85 -47 87 -45 13 13 -122 112 -246 180 -36 20 -94 52
-130 71 -95 53 -529 270 -570 286 -19 8 -44 20 -55 28 -47 33 11 9 300 -125
142 -66 476 -247 618 -335 43 -26 81 -48 83 -48 2 0 -5 18 -16 40 l-21 41 27
-7 c62 -16 9 26 -172 134 -321 191 -617 348 -636 336 -6 -4 -8 -3 -5 3 8 13
-20 26 -35 16 -7 -3 -8 -1 -4 5 9 15 3 15 -27 1 -19 -8 -30 -8 -48 2 -13 7
-26 14 -29 14 -34 8 -67 19 -75 25 -10 7 -81 27 -125 35 -94 18 -146 25 -222
31 -48 3 -85 10 -82 15 6 10 -20 10 -83 0z m64 -7 c-3 -3 -12 -4 -19 -1 -8 3
-5 6 6 6 11 1 17 -2 13 -5z m-47 -14 c0 -5 -4 -10 -10 -10 -5 0 -10 5 -10 10
0 6 5 10 10 10 6 0 10 -4 10 -10z m75 -10 c3 -5 -1 -10 -9 -10 -9 0 -16 5 -16
10 0 6 4 10 9 10 6 0 13 -4 16 -10z m49 1 c3 -5 0 -11 -8 -14 -15 -6 -26 1
-26 15 0 11 27 10 34 -1z m326 -112 c13 -7 13 -8 0 -8 -8 0 -26 6 -40 15 l-25
15 25 -7 c14 -3 32 -10 40 -15z"/>
<path d="M6138 3497 c8 -9 11 -21 8 -26 -4 -5 -1 -13 6 -17 7 -4 10 -4 6 1 -4
4 -4 13 2 19 6 8 2 16 -13 26 -20 12 -21 12 -9 -3z"/>
<path d="M5088 3473 c7 -3 16 -2 19 1 4 3 -2 6 -13 5 -11 0 -14 -3 -6 -6z"/>
<path d="M5085 3451 c-3 -5 -2 -12 3 -15 5 -3 9 1 9 9 0 17 -3 19 -12 6z"/>
<path d="M6165 3411 c-3 -5 -2 -12 3 -15 5 -3 9 1 9 9 0 17 -3 19 -12 6z"/>
<path d="M705 3400 c-3 -5 -2 -10 4 -10 5 0 13 5 16 10 3 6 2 10 -4 10 -5 0
-13 -4 -16 -10z"/>
<path d="M5114 3335 c0 -19 4 -35 8 -35 9 0 7 59 -2 65 -4 3 -7 -11 -6 -30z"/>
<path d="M5124 3252 c4 -7 1 -12 -6 -12 -8 0 -6 -5 5 -11 9 -6 14 -16 11 -22
-4 -7 -1 -6 7 2 11 10 11 15 1 18 -6 3 -10 9 -7 13 3 5 0 12 -6 16 -8 4 -9 3
-5 -4z"/>
<path d="M5105 3210 c-3 -5 -1 -10 4 -10 6 0 11 5 11 10 0 6 -2 10 -4 10 -3 0
-8 -4 -11 -10z"/>
<path d="M5150 3036 c0 -8 4 -17 9 -20 5 -4 7 3 4 14 -6 23 -13 26 -13 6z"/>
<path d="M5200 3004 c0 -8 5 -12 10 -9 6 4 8 11 5 16 -9 14 -15 11 -15 -7z"/>
<path d="M5971 2986 c-7 -9 -17 -13 -22 -10 -5 3 -9 0 -9 -6 0 -15 26 -23 43
-13 9 5 12 15 8 26 -6 17 -8 17 -20 3z m9 -16 c0 -5 -5 -10 -11 -10 -5 0 -7 5
-4 10 3 6 8 10 11 10 2 0 4 -4 4 -10z"/>
<path d="M6012 2980 c0 -14 2 -19 5 -12 2 6 2 18 0 25 -3 6 -5 1 -5 -13z"/>
<path d="M5901 2936 c-7 -9 -8 -17 -2 -20 5 -3 7 -15 4 -25 -3 -10 1 -22 7
-26 8 -5 11 0 8 16 -2 18 1 23 15 21 20 -3 24 32 5 44 -8 5 -9 2 -5 -9 4 -11
1 -17 -8 -17 -9 0 -12 6 -9 15 8 19 0 19 -15 1z"/>
<path d="M5986 2914 c-7 -19 0 -34 17 -34 9 0 8 3 -1 8 -7 5 -10 16 -6 25 3 9
4 17 1 17 -3 0 -8 -7 -11 -16z"/>
<path d="M5196 2895 c-3 -8 -1 -15 4 -15 6 0 10 7 10 15 0 8 -2 15 -4 15 -2 0
-6 -7 -10 -15z"/>
<path d="M5935 2879 c-4 -6 -4 -13 -1 -16 3 -4 6 0 6 8 0 11 2 11 10 -1 8 -13
10 -12 10 3 0 19 -15 23 -25 6z"/>
<path d="M7395 2861 c-3 -5 -1 -12 5 -16 6 -4 7 -12 3 -18 -4 -7 0 -6 10 2 20
16 22 22 5 19 -7 -2 -12 3 -10 10 2 14 -4 16 -13 3z"/>
<path d="M7437 2825 c-4 -8 -17 -15 -29 -15 -19 0 -20 -2 -8 -10 8 -5 10 -10
4 -10 -15 0 -16 -77 -2 -86 7 -5 8 -2 3 7 -5 8 -4 10 0 6 11 -10 16 -39 6 -32
-5 2 -6 -12 -4 -31 3 -26 0 -34 -8 -28 -8 4 -9 3 -5 -5 4 -6 12 -8 18 -5 7 4
8 2 4 -5 -4 -6 -2 -19 5 -27 10 -12 9 -13 -7 -7 -16 6 -17 5 -6 -9 10 -13 10
-17 0 -21 -8 -3 -5 -6 7 -7 l20 -1 -20 -9 c-17 -7 -17 -9 -2 -9 9 -1 17 -6 17
-12 0 -5 -4 -8 -8 -5 -5 3 -9 -1 -9 -9 0 -8 4 -15 8 -15 4 0 3 -16 -1 -34 -4
-19 -5 -37 -2 -40 7 -8 5 -123 -3 -135 -3 -6 -2 -11 4 -11 5 0 8 -8 6 -17 -2
-10 -4 -18 -5 -18 -1 0 -3 -8 -5 -17 -2 -10 1 -18 7 -18 6 0 5 -6 -2 -15 -7
-8 -9 -15 -5 -15 4 0 2 -7 -5 -15 -10 -12 -8 -16 15 -25 36 -14 40 -13 24 8
-12 15 -11 14 8 -1 27 -23 43 -15 37 18 -3 16 0 25 8 25 8 0 9 3 3 8 -13 9
-13 27 -1 39 5 4 6 3 2 -4 -3 -6 -3 -14 1 -16 5 -3 9 17 9 44 1 27 -3 49 -8
49 -5 0 -6 5 -3 10 4 6 10 8 15 5 5 -3 11 -1 15 5 3 5 -2 10 -12 11 -11 0 -13
3 -5 6 10 4 9 8 -4 17 -13 10 -14 15 -4 21 9 6 11 4 5 -6 -6 -11 -5 -12 5 -2
19 17 21 40 4 40 -11 0 -11 -3 -1 -16 11 -14 10 -14 -6 -2 -16 13 -17 16 -4
26 18 13 0 32 -26 27 -10 -2 -24 1 -32 8 -10 8 -14 8 -18 -2 -2 -7 -3 2 -2 20
2 37 9 47 25 37 9 -6 9 -9 1 -15 -16 -9 -4 -37 16 -37 14 0 14 2 -1 13 -12 8
-14 14 -6 19 8 5 8 10 0 20 -8 10 -5 19 12 36 13 12 18 19 12 16 -15 -9 -49
29 -34 38 5 3 8 11 5 16 -4 5 0 9 8 9 8 0 17 7 21 15 3 9 0 15 -10 15 -8 0
-12 -4 -9 -10 3 -5 1 -10 -4 -10 -15 0 -7 40 10 51 11 8 11 9 -3 7 -9 -2 -16
0 -15 3 1 3 -5 14 -13 25 -14 18 -14 18 2 5 10 -7 15 -18 11 -25 -4 -7 -2 -8
5 -1 6 6 8 23 5 38 -4 21 -8 25 -14 15 -5 -8 -7 1 -6 24 3 29 0 35 -9 27 -8
-7 -14 -7 -19 1 -3 5 -2 10 3 10 10 0 25 30 18 37 -2 2 -6 -3 -9 -12z m-17
-56 c0 -5 6 -7 13 -3 9 6 9 5 0 -8 -7 -8 -11 -17 -8 -20 3 -2 -2 -5 -10 -5
-10 0 -12 4 -5 12 6 7 5 16 -2 23 -9 9 -9 12 0 12 7 0 12 -5 12 -11z m45 -228
c3 -5 0 -13 -6 -17 -7 -4 -9 -3 -5 4 3 5 0 13 -6 15 -9 4 -10 6 -1 6 6 1 14
-3 18 -8z m21 -407 c1 -9 -1 -13 -4 -9 -4 4 -7 10 -7 13 0 4 -4 14 -9 22 -7
12 -6 13 4 3 8 -7 15 -20 16 -29z"/>
<path d="M5190 2821 c0 -6 4 -13 10 -16 6 -3 7 1 4 9 -7 18 -14 21 -14 7z"/>
<path d="M5905 2810 c10 -11 20 -20 23 -20 3 0 2 3 -1 7 -4 3 -1 13 6 22 11
14 10 14 -5 2 -12 -9 -18 -10 -18 -2 0 6 -5 11 -12 11 -6 0 -3 -9 7 -20z"/>
<path d="M2195 2771 c-7 -12 29 -33 39 -23 4 3 4 -1 0 -11 -11 -28 4 -19 21
13 l16 30 -35 0 c-19 0 -37 -4 -41 -9z"/>
<path d="M7466 2771 c-3 -5 1 -11 9 -14 9 -4 12 -1 8 9 -6 16 -10 17 -17 5z"/>
<path d="M5710 2641 c0 -6 4 -13 10 -16 6 -3 7 1 4 9 -7 18 -14 21 -14 7z"/>
<path d="M1677 2614 c12 -16 40 -49 62 -72 23 -24 41 -47 41 -52 0 -10 31 -24
49 -21 7 1 10 -2 7 -7 -3 -5 1 -18 9 -28 8 -11 14 -14 15 -6 0 6 5 12 11 12 5
0 7 -5 3 -12 -5 -8 -2 -9 10 -5 11 5 15 3 10 -5 -5 -8 -2 -9 10 -5 10 4 22 7
28 7 6 0 6 6 -2 15 -7 8 -9 15 -6 15 16 0 -55 56 -144 114 -128 85 -127 84
-103 50z"/>
<path d="M7469 2583 c-13 -15 -12 -15 7 -5 12 6 25 8 29 4 5 -4 5 -1 1 6 -10
16 -21 15 -37 -5z"/>
<path d="M5380 2535 c-11 -13 -10 -14 4 -9 9 3 16 10 16 15 0 13 -6 11 -20 -6z"/>
<path d="M5455 2541 c-3 -5 -1 -12 5 -16 5 -3 10 1 10 9 0 18 -6 21 -15 7z"/>
<path d="M3140 2422 c-14 -14 -26 -19 -28 -12 -3 7 -10 4 -19 -7 -8 -10 -12
-13 -9 -7 3 6 -1 11 -9 11 -8 0 -12 -4 -9 -9 3 -4 0 -8 -5 -8 -6 0 -11 6 -11
13 0 9 -2 9 -9 -1 -6 -11 -11 -10 -24 3 -15 15 -21 7 -78 -110 -33 -69 -64
-123 -69 -120 -4 3 -10 -2 -14 -10 -3 -8 -11 -15 -18 -15 -9 0 -8 3 2 10 11 7
-2 10 -45 11 -33 1 -66 1 -73 0 -7 -1 -15 5 -18 14 -3 8 -16 15 -28 15 -11 0
-30 7 -40 15 -11 8 -28 15 -38 15 -10 0 -21 7 -24 15 -5 11 -10 13 -19 5 -13
-11 -22 -5 -140 93 -107 90 -119 88 -30 -3 l80 -82 -70 55 c-72 57 -92 66 -56
25 11 -12 21 -27 21 -33 2 -16 42 -55 57 -55 7 0 12 -5 11 -12 -2 -6 7 -17 19
-23 13 -7 20 -15 16 -18 -3 -4 1 -7 10 -7 9 0 22 -8 29 -18 7 -10 40 -39 73
-64 33 -25 78 -65 100 -88 22 -23 54 -51 70 -62 19 -14 11 -2 -22 33 -29 30
-53 57 -53 61 0 3 -33 38 -72 77 -40 39 -68 71 -63 71 6 0 24 -12 40 -28 44
-39 177 -153 200 -171 14 -11 16 -11 8 -1 -20 22 -16 26 19 24 18 -1 39 3 47
9 12 10 13 9 6 -2 -6 -11 -5 -12 6 -5 8 4 21 10 29 11 128 22 384 83 394 94 3
3 -13 41 -35 85 -23 44 -51 114 -62 155 l-22 74 -25 -23z m-634 -193 c19 -22
19 -22 -3 -8 -13 8 -23 17 -23 21 0 12 6 9 26 -13z"/>
<path d="M6577 2395 c-31 -17 -74 -47 -95 -67 -21 -19 -55 -41 -76 -48 -20 -6
-40 -18 -43 -26 -3 -8 -12 -14 -20 -14 -8 0 -11 -4 -8 -10 3 -5 2 -10 -3 -10
-5 0 -12 -9 -15 -20 -3 -11 -1 -18 3 -15 4 3 3 -6 -3 -19 -7 -13 -15 -22 -19
-20 -4 3 -5 -2 -2 -10 3 -9 10 -16 16 -16 5 0 6 5 2 11 -5 8 1 10 19 7 15 -3
24 -2 22 3 -3 4 8 16 24 25 17 10 27 22 24 28 -4 6 2 4 13 -4 10 -8 16 -11 12
-6 -4 5 9 21 28 37 30 23 40 27 56 18 12 -7 18 -7 14 -1 -5 8 18 21 34 18 9
-2 74 68 76 82 1 6 -2 10 -7 6 -5 -3 -5 6 1 20 5 14 6 26 2 26 -4 0 1 5 11 11
9 5 17 14 17 18 0 15 -26 7 -83 -24z"/>
<path d="M1915 2400 c-3 -6 1 -7 9 -4 9 4 18 -1 22 -10 3 -9 11 -16 17 -16 5
0 2 9 -8 20 -20 22 -31 25 -40 10z"/>
<path d="M1950 2356 c0 -3 9 -10 20 -16 11 -6 20 -8 20 -6 0 3 -9 10 -20 16
-11 6 -20 8 -20 6z"/>
<path d="M7504 2109 c-3 -6 -15 -9 -25 -6 -11 3 -19 1 -19 -3 0 -5 8 -10 18
-12 12 -2 13 -6 5 -11 -7 -4 -20 1 -31 14 -11 11 -28 19 -39 17 -15 -3 -12 -8
17 -27 19 -13 26 -20 15 -16 -11 3 -24 7 -28 8 -4 1 -14 -13 -22 -31 -8 -19
-10 -30 -4 -26 7 4 9 0 5 -13 -4 -13 -2 -20 7 -20 9 0 13 8 10 21 -4 15 -2 17
5 8 15 -22 23 -19 43 18 15 26 18 28 13 10 -4 -14 -3 -22 1 -17 5 4 9 17 10
30 2 12 8 21 14 19 7 -1 10 2 6 8 -4 6 -1 17 5 25 7 8 10 15 7 15 -3 0 -9 -5
-13 -11z"/>
<path d="M7851 2049 c-29 -33 -80 -79 -112 -102 -38 -26 -58 -46 -54 -55 3
-10 0 -12 -10 -8 -13 5 -17 0 -14 -20 0 -4 -3 -10 -8 -13 -15 -11 -39 -45 -25
-37 7 4 1 -9 -13 -30 -14 -20 -25 -40 -25 -44 0 -10 83 12 91 24 4 5 14 6 23
3 9 -4 16 -2 16 3 0 14 43 13 57 -1 8 -8 13 -5 18 10 4 12 11 19 18 15 8 -5 8
-2 0 7 -15 16 -17 33 -3 24 6 -3 10 3 10 15 0 12 5 18 10 15 6 -3 11 4 11 17
1 13 2 28 4 33 1 6 3 16 3 23 1 7 6 11 11 8 5 -4 8 2 6 11 -1 10 1 23 5 28 5
6 8 13 8 18 -1 27 15 77 24 77 6 0 8 3 5 7 -4 3 1 12 11 19 14 11 14 13 2 13
-8 0 -39 -27 -69 -60z"/>
<path d="M2413 1881 c6 -17 16 -27 21 -23 6 3 4 -3 -4 -13 -9 -11 -10 -16 -2
-11 7 4 12 2 12 -4 0 -6 5 -8 12 -4 7 4 8 3 4 -5 -4 -6 -1 -22 7 -34 8 -12 14
-26 15 -31 0 -5 4 -12 10 -15 5 -3 30 -37 56 -76 47 -71 61 -63 15 10 -35 56
-58 121 -52 145 3 11 1 20 -4 20 -5 0 -15 12 -22 27 -8 18 -15 23 -23 15 -13
-13 -38 -4 -38 14 0 8 -4 14 -9 14 -5 0 -4 -13 2 -29z"/>
<path d="M7751 1763 c4 -22 -2 -35 -13 -30 -9 3 -13 -6 -14 -26 -1 -26 0 -27
9 -11 6 11 17 25 24 32 15 16 17 42 3 42 -5 0 -9 -3 -9 -7z"/>
<path d="M2606 1716 c-8 -33 -3 -42 11 -24 6 7 7 22 3 33 -6 17 -8 16 -14 -9z"/>
<path d="M6589 1694 c-46 -19 -131 -49 -189 -65 -132 -39 -413 -97 -463 -95
-20 1 -37 -2 -37 -6 0 -4 -9 -6 -20 -5 -27 2 -25 15 2 19 18 2 23 10 23 33 0
21 -4 29 -15 27 -12 -3 -13 -1 -2 10 10 10 14 10 21 0 4 -8 15 -10 26 -6 14 6
17 4 12 -9 -3 -9 -2 -17 3 -17 5 0 9 11 8 24 -2 25 -17 30 -30 11 -5 -6 -8 -3
-8 6 0 9 -8 16 -17 16 -22 0 -45 -22 -35 -32 4 -5 1 -5 -6 -1 -7 4 -10 12 -7
17 4 5 -1 9 -9 9 -9 0 -16 -5 -16 -11 0 -5 -5 -7 -11 -4 -6 5 -4 12 8 20 13 9
22 10 30 3 9 -7 13 -7 13 0 0 14 -28 23 -35 11 -4 -5 -11 -7 -16 -3 -6 3 -5
12 3 22 12 15 11 16 -4 4 -9 -8 -22 -11 -27 -8 -5 4 -13 1 -17 -5 -5 -9 -11
-7 -21 6 -15 22 -17 12 -3 -15 9 -16 7 -18 -11 -15 -12 2 -27 12 -35 22 -12
16 -13 16 -8 -7 5 -20 3 -22 -5 -10 -7 10 -11 11 -11 3 0 -7 -4 -13 -10 -13
-5 0 -9 3 -7 8 1 4 -1 7 -4 7 -3 0 -14 6 -23 14 -9 8 -16 10 -15 5 1 -5 1 -15
0 -23 -1 -11 -4 -10 -14 4 -10 13 -16 15 -21 6 -5 -8 -12 -9 -20 -2 -9 7 -20
3 -39 -15 -15 -14 -27 -22 -27 -18 0 3 -7 1 -15 -6 -8 -7 -12 -17 -8 -23 4 -6
1 -7 -6 -3 -7 5 -10 15 -7 23 4 8 1 11 -5 8 -6 -4 -8 -12 -6 -19 3 -6 -2 -17
-9 -24 -8 -7 -14 -9 -14 -4 0 17 -43 5 -68 -19 -14 -13 -22 -18 -17 -10 6 11
5 12 -6 5 -8 -5 -17 -9 -21 -10 -5 -1 -10 -3 -13 -4 -3 -1 -13 -3 -22 -4 -10
-1 -24 -5 -32 -10 -10 -7 -12 -6 -6 3 6 10 3 11 -15 1 -12 -6 -38 -14 -58 -16
-173 -23 -334 -28 -447 -15 -154 17 -192 21 -170 15 11 -3 54 -16 95 -29 41
-13 99 -28 129 -34 106 -22 261 -96 261 -125 0 -17 -27 -40 -32 -28 -2 5 -37
5 -83 0 -44 -5 -109 -9 -145 -8 -69 1 -211 -17 -245 -30 -13 -5 5 -8 47 -7 63
2 89 -5 75 -19 -3 -4 -66 -10 -139 -15 -73 -4 -176 -11 -228 -15 -52 -4 -126
-6 -164 -6 -46 0 -65 -3 -55 -9 10 -6 1 -9 -28 -9 -23 0 -44 4 -48 10 -4 6
-15 6 -30 0 -16 -6 -34 -6 -50 0 -13 5 -27 6 -29 1 -7 -11 -148 -3 -441 25
-240 23 -517 83 -674 148 -35 14 -67 24 -69 21 -6 -6 116 -61 156 -70 42 -9
51 -26 12 -21 -25 3 -28 1 -19 -10 6 -8 18 -14 25 -14 8 0 14 -5 14 -10 0 -6
34 -32 74 -59 41 -27 72 -51 69 -54 -3 -3 6 -9 21 -13 14 -3 26 -9 26 -14 0
-5 50 -30 90 -45 9 -3 64 -27 140 -61 90 -40 160 -65 160 -57 0 3 6 1 13 -4 6
-6 19 -11 27 -11 56 -2 216 -29 310 -52 41 -11 131 -28 199 -40 69 -12 127
-23 130 -25 3 -1 31 -6 61 -9 30 -4 69 -8 85 -10 17 -3 59 -8 95 -11 36 -4 74
-9 84 -11 11 -2 53 -6 95 -9 42 -4 90 -9 106 -11 17 -3 176 -8 354 -11 l324
-6 -5 21 c-4 13 0 26 11 34 14 12 15 11 2 -4 -8 -11 -9 -18 -3 -18 6 0 9 -8 6
-17 -5 -17 -5 -17 9 0 15 18 32 22 40 10 2 -5 2 -3 1 4 -2 6 5 17 13 25 15 11
16 11 10 -6 -6 -15 -4 -17 10 -11 10 4 23 8 29 8 19 1 10 25 -20 56 -18 19
-26 36 -22 46 4 11 2 15 -6 12 -7 -2 -12 -11 -10 -18 2 -8 0 -10 -4 -6 -12 11
-14 38 -2 31 5 -3 12 3 15 15 3 11 10 18 16 14 6 -3 7 -1 3 5 -4 6 -12 9 -19
6 -8 -3 -13 6 -15 23 -1 15 -8 30 -14 34 -8 5 -5 8 9 7 16 -2 20 -7 17 -25 -3
-13 0 -23 6 -23 5 0 10 10 10 23 0 12 5 29 11 37 9 12 10 11 6 -7 -3 -14 0
-21 7 -20 6 1 10 -4 8 -11 -1 -8 2 -11 8 -7 7 4 7 11 2 18 -29 37 7 55 55 29
27 -15 33 -15 33 -1 0 5 -4 8 -9 5 -5 -3 -15 2 -22 12 -13 15 -12 16 4 3 14
-11 17 -11 17 0 1 9 5 8 15 -5 14 -18 15 -18 15 -2 0 9 5 14 10 11 6 -4 7 -11
4 -17 -4 -7 -2 -8 4 -4 6 4 8 14 5 24 -6 15 -5 15 10 3 15 -12 18 -10 26 10
l10 24 1 -25 c2 -23 3 -22 11 8 11 36 14 39 23 16 3 -8 2 -13 -2 -10 -5 3 -9
-1 -9 -9 0 -11 4 -12 14 -4 7 6 11 15 8 19 -2 4 4 15 15 25 11 10 20 15 20 10
0 -4 6 -2 14 4 11 9 16 9 22 0 4 -7 3 -9 -4 -5 -6 3 -13 3 -16 -2 -2 -4 4 -9
15 -9 15 -1 19 4 16 20 -3 24 -26 68 -27 51 0 -5 5 -15 12 -22 9 -9 9 -12 0
-12 -7 0 -12 5 -12 11 0 5 -5 7 -11 3 -8 -4 -8 -1 -1 13 10 17 23 18 205 17
108 -1 200 -5 206 -8 6 -4 11 -1 11 6 0 8 3 9 8 3 10 -14 85 -18 76 -4 -4 8
-1 8 12 2 20 -9 161 -10 170 0 3 3 19 1 35 -3 16 -5 29 -6 29 -2 0 4 19 7 43
8 23 0 85 4 137 8 52 4 111 8 130 9 19 1 38 7 42 12 5 6 8 5 8 -3 0 -9 5 -10
18 -3 9 5 20 9 25 9 4 0 27 3 52 6 25 4 47 7 50 7 2 0 19 6 37 13 18 7 43 12
55 11 12 -1 20 2 17 7 -3 4 2 8 10 8 9 0 16 4 16 8 0 13 33 11 49 -2 12 -9 12
-8 3 11 -8 15 -9 24 -2 28 6 4 9 1 8 -7 -2 -8 4 -12 16 -10 12 2 16 -1 10 -9
-4 -7 -3 -10 4 -6 5 4 8 17 6 30 -2 12 -1 16 2 9 5 -10 10 -8 21 8 11 15 18
18 27 11 7 -6 17 -7 21 -3 5 4 5 2 1 -5 -3 -6 -15 -10 -25 -8 -10 2 -18 -3
-18 -11 0 -10 4 -11 14 -3 7 6 13 8 13 4 0 -4 6 -3 13 3 7 6 24 9 39 8 16 -2
38 6 57 21 26 21 29 27 20 45 -8 15 -8 19 0 14 6 -4 11 -1 11 8 0 8 -5 18 -12
22 -7 4 -8 3 -4 -4 4 -7 2 -12 -3 -12 -6 0 -14 0 -18 0 -5 0 -8 5 -8 10 0 6 2
9 5 9 3 -1 31 13 63 30 31 17 57 26 57 21 0 -6 7 -10 16 -10 10 0 7 7 -12 23
-19 17 -24 26 -15 31 6 4 10 3 9 -2 -2 -6 2 -9 7 -9 6 1 9 8 9 15 -2 10 1 10
12 1 11 -9 14 -8 14 5 0 10 4 15 9 12 14 -9 34 22 27 41 -5 15 -3 14 10 -2 16
-19 16 -19 11 15 -3 19 -3 29 0 22 2 -6 9 -9 14 -6 6 4 6 11 -1 19 -7 9 -6 16
4 24 11 10 13 4 11 -36 -4 -45 -3 -46 6 -15 9 29 39 46 39 21 0 -5 -5 -7 -12
-3 -7 5 -8 3 -4 -5 6 -9 13 -8 27 5 23 20 24 25 5 18 -11 -4 -13 3 -11 30 3
27 0 33 -11 29 -8 -3 -14 -11 -14 -19 0 -8 -5 -14 -11 -14 -5 0 -7 5 -4 11 10
14 -37 -13 -51 -30 -12 -16 -38 -6 -28 11 4 6 2 8 -4 5 -5 -4 -9 -15 -7 -25 3
-20 -14 -44 -26 -36 -5 3 -4 15 2 27 10 21 9 21 -5 3 -9 -10 -12 -24 -9 -30 4
-6 -1 -5 -10 3 -9 7 -17 9 -17 4 0 -5 -7 -18 -15 -29 -14 -17 -14 -15 0 21 13
35 13 38 0 21 -8 -11 -15 -24 -15 -30 0 -5 -6 -2 -12 7 -11 15 -13 11 -12 -27
0 -25 -3 -43 -7 -40 -5 3 -6 19 -2 36 6 28 5 30 -9 17 -9 -8 -14 -17 -12 -21
2 -4 0 -9 -5 -13 -10 -6 -7 27 4 44 3 5 1 13 -5 16 -6 4 -9 2 -8 -4 2 -5 -6
-17 -17 -26 -11 -9 -14 -14 -7 -10 6 3 12 1 12 -6 0 -6 -8 -9 -20 -6 -22 6
-45 -16 -35 -35 4 -7 1 -6 -7 3 -17 21 -29 23 -39 7 -7 -10 -9 -9 -9 5 0 13 6
16 23 13 16 -3 24 1 24 10 0 10 -4 11 -14 3 -10 -9 -13 -8 -13 1 0 9 -7 7 -20
-5 -11 -10 -20 -14 -20 -10 0 5 -7 0 -16 -11 -15 -18 -15 -18 -5 3 7 14 8 24
1 28 -13 8 11 35 25 27 6 -2 5 1 -2 8 -6 7 -9 19 -5 28 4 11 1 14 -11 9 -11
-4 -14 -2 -11 8 5 11 10 12 24 2 11 -6 23 -7 27 -3 4 5 2 11 -4 13 -7 3 -13
12 -13 21 0 15 2 15 10 2 7 -12 9 -10 8 6 -2 16 -6 20 -18 13 -33 -19 -180
-50 -260 -56 -85 -5 -170 10 -286 50 -38 14 -43 13 -125 -19z m-794 -64 c-5
-8 -11 -8 -17 -2 -6 6 -7 16 -3 22 5 8 11 8 17 2 6 -6 7 -16 3 -22z m-210 10
c8 7 12 5 12 -4 0 -15 -14 -16 -35 -2 -9 6 -11 1 -8 -19 4 -22 3 -25 -10 -15
-7 7 -14 9 -14 5 0 -5 -3 -6 -6 -3 -3 4 3 15 12 27 12 13 22 17 28 11 6 -6 14
-6 21 0z m65 -10 c9 -16 8 -18 -5 -14 -8 4 -15 12 -15 20 0 20 7 17 20 -6z
m1841 -53 c-10 -9 -11 -8 -5 6 3 10 9 15 12 12 3 -3 0 -11 -7 -18z m83 5 c3
-5 -1 -9 -9 -9 -8 0 -12 4 -9 9 3 4 7 8 9 8 2 0 6 -4 9 -8z m-2177 -25 c0 -8
-6 -14 -14 -14 -9 0 -10 4 -2 14 6 7 12 13 14 13 1 0 2 -6 2 -13z m387 -36 c3
-5 -6 -11 -21 -14 -26 -5 -26 -4 -8 9 22 17 22 17 29 5z m46 -1 c-18 -12 -30
-13 -30 -2 0 4 10 9 22 9 18 2 20 0 8 -7z m1350 0 c0 -5 -5 -10 -11 -10 -5 0
-7 5 -4 10 3 6 8 10 11 10 2 0 4 -4 4 -10z m304 -6 c3 -8 2 -12 -4 -9 -6 3
-10 10 -10 16 0 14 7 11 14 -7z m-263 -17 c-10 -9 -11 -8 -5 6 3 10 9 15 12
12 3 -3 0 -11 -7 -18z m145 -137 c3 -8 4 -17 2 -20 -7 -10 -39 -6 -49 6 -8 10
-5 12 13 9 22 -4 24 -2 22 33 -2 20 0 26 2 12 3 -14 7 -32 10 -40z m24 35 c5
3 12 0 15 -6 5 -7 1 -10 -10 -7 -10 1 -20 9 -21 16 -1 7 0 8 3 2 2 -5 9 -8 13
-5z m-2415 -150 c0 -14 -6 -25 -12 -25 -7 0 -13 5 -13 10 0 6 -7 10 -15 10 -9
0 -15 -7 -13 -17 2 -13 -7 -19 -37 -25 -69 -12 -122 -9 -129 7 -3 8 -12 12
-21 9 -8 -3 -15 -2 -15 4 0 5 32 12 72 14 47 2 73 8 76 17 3 10 6 10 11 2 6
-8 17 -7 42 3 47 21 54 20 54 -9z m411 -360 c-3 -8 0 -15 6 -15 6 0 9 -3 5 -6
-10 -11 -26 6 -20 21 3 8 7 15 10 15 3 0 3 -7 -1 -15z m30 -60 c0 -19 -3 -35
-8 -35 -10 0 -11 54 -1 63 3 4 7 7 7 7 1 0 1 -16 2 -35z m55 -28 c-13 -13 -34
2 -27 19 3 8 0 11 -10 7 -10 -4 -12 0 -8 11 6 15 9 15 30 -5 15 -14 21 -26 15
-32z"/>
<path d="M2566 1688 c3 -5 10 -6 15 -3 13 9 11 12 -6 12 -8 0 -12 -4 -9 -9z"/>
<path d="M5893 1673 c-7 -3 -13 -8 -13 -13 0 -10 24 -7 28 4 5 11 -1 14 -15 9z"/>
<path d="M2575 1660 c3 -5 8 -10 11 -10 2 0 4 5 4 10 0 6 -5 10 -11 10 -5 0
-7 -4 -4 -10z"/>
<path d="M3408 1635 c18 -9 30 -20 26 -26 -3 -6 4 -13 16 -16 14 -4 20 -12 18
-26 -3 -19 -10 -21 -78 -21 l-75 -1 -22 -44 c-38 -77 -64 -86 -240 -86 l-152
0 50 -17 c52 -18 209 -52 287 -62 28 -4 42 -2 42 5 0 9 66 10 258 5 141 -4
292 -8 335 -9 42 -1 77 1 77 4 0 4 11 10 24 13 29 7 60 67 51 98 -5 13 -3 18
3 14 6 -3 9 2 8 11 -2 12 -27 27 -76 45 -41 15 -96 43 -124 61 -81 55 -83 55
-276 61 -171 6 -182 5 -152 -9z"/>
<path d="M5993 1627 c-2 -17 0 -19 7 -7 9 13 14 7 11 -12 0 -4 6 -5 15 -1 8 3
14 6 12 7 -2 1 -12 9 -23 18 -20 17 -21 16 -22 -5z"/>
<path d="M7255 1640 c-3 -5 -1 -10 4 -10 6 0 11 5 11 10 0 6 -2 10 -4 10 -3 0
-8 -4 -11 -10z"/>
<path d="M5971 1624 c0 -11 3 -14 6 -6 3 7 2 16 -1 19 -3 4 -6 -2 -5 -13z"/>
<path d="M7757 1629 c7 -7 15 -10 18 -7 3 3 -2 9 -12 12 -14 6 -15 5 -6 -5z"/>
<path d="M7660 1551 c-41 -41 -92 -86 -112 -101 -21 -15 -34 -30 -31 -34 3 -3
-1 -6 -9 -6 -9 0 -21 -7 -28 -15 -23 -28 42 3 85 40 22 19 44 35 50 35 5 0 4
-4 -4 -9 -7 -5 -9 -11 -4 -14 5 -3 15 3 22 15 7 11 8 17 2 13 -21 -12 -11 12
14 35 21 20 27 21 42 10 17 -13 17 -13 1 5 -17 18 -16 21 19 57 20 21 35 39
32 41 -2 2 -38 -31 -79 -72z"/>
<path d="M5920 1581 c-7 -13 -7 -22 0 -26 12 -7 12 -7 15 23 3 27 -1 28 -15 3z"/>
<path d="M5985 1590 c3 -5 11 -10 16 -10 6 0 7 5 4 10 -3 6 -11 10 -16 10 -6
0 -7 -4 -4 -10z"/>
<path d="M7240 1590 c0 -5 5 -10 11 -10 5 0 7 5 4 10 -3 6 -8 10 -11 10 -2 0
-4 -4 -4 -10z"/>
<path d="M2590 1544 c-11 -32 -10 -38 9 -58 12 -12 18 -26 14 -30 -5 -4 -3 -6
2 -5 6 2 28 -6 50 -18 42 -22 133 -41 105 -23 -43 30 -132 79 -147 82 -14 3
-18 13 -16 46 1 23 0 42 -2 42 -2 0 -9 -16 -15 -36z"/>
<path d="M7575 1520 c-4 -6 -11 -8 -16 -5 -5 4 -9 1 -9 -4 0 -16 16 -13 30 4
7 8 10 15 7 15 -3 0 -9 -5 -12 -10z"/>
<path d="M4508 1513 c7 -3 16 -2 19 1 4 3 -2 6 -13 5 -11 0 -14 -3 -6 -6z"/>
<path d="M7660 1500 c-9 -6 -10 -10 -3 -10 6 0 15 5 18 10 8 12 4 12 -15 0z"/>
<path d="M7485 1469 c-4 -5 -12 -6 -18 -2 -8 5 -8 2 0 -9 14 -16 8 -28 -13
-28 -8 0 -11 7 -7 18 3 9 3 14 -1 11 -11 -10 -15 -78 -5 -85 5 -3 13 6 18 19
5 13 21 33 35 45 14 11 26 22 26 25 0 10 -30 16 -35 6z m15 -9 c0 -5 -5 -10
-11 -10 -5 0 -7 5 -4 10 3 6 8 10 11 10 2 0 4 -4 4 -10z"/>
<path d="M2783 1420 c27 -22 37 -25 37 -12 0 8 -43 32 -57 32 -3 0 6 -9 20
-20z"/>
<path d="M2834 1399 c-6 -10 103 -44 166 -52 44 -6 44 -6 10 4 -19 6 -65 21
-103 34 -37 12 -70 19 -73 14z"/>
<path d="M2660 1396 c0 -2 7 -7 16 -10 8 -3 12 -2 9 4 -6 10 -25 14 -25 6z"/>
<path d="M3068 1333 c6 -2 18 -2 25 0 6 3 1 5 -13 5 -14 0 -19 -2 -12 -5z"/>
<path d="M3358 1288 c6 -6 18 -8 28 -6 14 3 12 5 -9 10 -19 3 -25 2 -19 -4z"/>
<path d="M3441 1276 c7 -8 241 -36 284 -35 22 1 -21 10 -95 20 -135 18 -197
23 -189 15z"/>
<path d="M3854 1240 c-22 -8 84 -20 172 -20 68 0 97 15 36 19 -102 6 -192 6
-208 1z"/>
<path d="M5724 1099 c-3 -6 -2 -15 3 -20 5 -5 9 -1 10 11 2 22 -2 25 -13 9z"/>
<path d="M5485 1021 c-3 -5 -2 -12 3 -15 5 -3 9 1 9 9 0 17 -3 19 -12 6z"/>
<path d="M5461 863 c7 -12 15 -20 18 -17 3 2 -3 12 -13 22 -17 16 -18 16 -5
-5z"/>
<path d="M7974 644 c-18 -14 -18 -14 6 -3 31 14 36 19 24 19 -6 0 -19 -7 -30
-16z"/>
<path d="M7910 615 c-14 -8 -20 -14 -15 -14 6 0 21 6 35 14 14 8 21 14 15 14
-5 0 -21 -6 -35 -14z"/>
<path d="M7820 575 c-14 -8 -20 -14 -15 -14 6 0 21 6 35 14 14 8 21 14 15 14
-5 0 -21 -6 -35 -14z"/>
<path d="M7750 545 c-14 -8 -20 -14 -15 -14 6 0 21 6 35 14 14 8 21 14 15 14
-5 0 -21 -6 -35 -14z"/>
<path d="M7690 520 c-8 -5 -10 -10 -5 -10 6 0 17 5 25 10 8 5 11 10 5 10 -5 0
-17 -5 -25 -10z"/>
<path d="M7611 489 c-23 -10 -59 -21 -78 -23 -19 -3 -46 -12 -60 -21 -14 -10
-23 -13 -19 -7 4 6 -2 8 -14 5 -11 -3 -20 -8 -20 -12 0 -4 -14 -8 -31 -9 -17
-1 -39 -7 -50 -12 -10 -6 -29 -11 -43 -12 -15 -1 -26 -6 -26 -10 0 -4 -3 -7
-7 -6 -5 1 -21 -1 -38 -5 -16 -4 -41 -9 -54 -12 -13 -2 -26 -7 -29 -10 -3 -3
-15 3 -26 12 -20 17 -20 17 -7 1 9 -12 10 -18 2 -19 -6 -1 -17 -2 -23 -3 -7
-1 -19 2 -26 7 -9 7 -11 5 -6 -9 6 -18 5 -17 -9 1 -9 11 -17 16 -17 11 0 -5
-8 -2 -18 8 -18 15 -20 15 -36 -3 -10 -11 -15 -25 -11 -33 6 -10 5 -10 -4 -2
-10 9 -10 17 -1 34 11 21 11 21 -14 5 -14 -10 -26 -13 -26 -7 0 15 -33 8 -38
-8 -3 -8 0 -10 8 -5 9 5 11 4 6 -4 -4 -6 -13 -8 -19 -4 -14 9 -77 11 -77 2 0
-3 -6 -6 -12 -7 -72 -7 -101 -12 -111 -19 -7 -5 -24 -8 -39 -7 -15 0 -29 -5
-32 -13 -4 -10 -11 -11 -25 -4 -10 6 -21 7 -25 4 -4 -4 -16 -8 -28 -10 -12 -2
-28 -9 -37 -16 -12 -10 -13 -9 -7 2 7 10 3 11 -15 5 -13 -4 -32 -8 -41 -8 -9
0 -15 -3 -12 -7 2 -4 -17 -7 -42 -7 -25 -1 -52 -6 -59 -12 -10 -8 -15 -8 -20
0 -5 8 -11 8 -21 -1 -8 -6 -31 -13 -51 -14 -21 -1 -38 -4 -38 -5 0 -2 -33 -10
-63 -14 -12 -1 -25 -6 -29 -9 -3 -4 -12 -2 -18 3 -9 7 -16 6 -24 -4 -7 -8 -23
-13 -37 -10 -14 3 -24 0 -24 -7 0 -8 -4 -8 -14 0 -8 7 -17 8 -20 3 -8 -14 -66
-21 -66 -8 0 5 -6 2 -12 -7 -7 -9 -22 -15 -33 -13 -11 2 -28 -2 -38 -9 -10 -7
-28 -10 -39 -7 -12 3 -19 1 -15 -4 3 -5 -11 -8 -34 -6 -21 2 -39 0 -39 -4 0
-5 -17 -10 -38 -11 -32 -1 -64 -7 -82 -13 -3 -1 -15 -1 -27 0 -13 1 -23 -2
-23 -7 0 -5 -17 -8 -37 -8 -21 1 -44 -3 -52 -9 -12 -9 -13 -8 -6 3 6 10 4 12
-6 6 -16 -10 -57 -17 -121 -18 -27 -1 -48 -6 -48 -10 0 -5 -12 -7 -28 -6 -15
2 -33 0 -40 -4 -7 -5 -12 -3 -12 3 0 6 -5 8 -12 4 -26 -16 -444 -22 -683 -9
-71 4 -128 5 -125 2 5 -5 186 -15 615 -33 177 -7 764 20 995 47 458 52 906
148 1290 276 195 65 462 173 425 172 -5 0 -30 -9 -54 -20z m-613 -164 c-3 -3
-9 2 -12 12 -6 14 -5 15 5 6 7 -7 10 -15 7 -18z"/>
<path d="M7017 373 c3 -9 10 -10 21 -4 10 6 25 4 41 -6 l26 -15 -23 18 c-28
21 -72 26 -65 7z"/>
<path d="M4178 63 c7 -3 16 -2 19 1 4 3 -2 6 -13 5 -11 0 -14 -3 -6 -6z"/>
<path d="M4268 53 c6 -2 18 -2 25 0 6 3 1 5 -13 5 -14 0 -19 -2 -12 -5z"/>
</g>
</svg>
